<?xml version="1.0" encoding="UTF-8"?><svg id="a" xmlns="http://www.w3.org/2000/svg" viewBox="0 0 319 50"><defs><style>.b{opacity:.3;}.b,.c,.d,.e{fill-rule:evenodd;}.b,.d{fill:#fff;}.c{fill:#bc4a4a;}.e{fill:#fd453a;}</style></defs><g><path class="c" d="M25.08,0C11.23,0,0,11.19,0,25s11.23,25,25.08,25H293.92c13.85,0,25.08-11.19,25.08-25S307.77,0,293.92,0H25.08Z"/><path class="e" d="M25.58,0C12.56,0,2.01,10.52,2.01,23.5s10.55,23.5,23.57,23.5H293.42c13.02,0,23.57-10.52,23.57-23.5S306.44,0,293.42,0H25.58Z"/><path class="b" d="M25.58,0c-3.72,0-7.24,.86-10.37,2.39L59.96,47h34.29L47.1,0H25.58Z"/><path class="b" d="M7.6,8.31L46.41,47h7.8L11.63,4.56c-1.49,1.09-2.84,2.35-4.03,3.75Z"/><path class="d" d="M25.83,7c-8.72,0-15.8,7.05-15.8,15.75v.5c0,8.7,7.07,15.75,15.8,15.75H293.17c8.72,0,15.8-7.05,15.8-15.75v-.5c0-8.7-7.07-15.75-15.8-15.75H25.83Z"/><path class="d" d="M29.5,7.1c0,1.68,2.62,3.05,5.86,3.05s5.86-1.37,5.86-3.05-2.62-3.05-5.86-3.05-5.86,1.36-5.86,3.05Z"/><path class="d" d="M43.87,7.1c0,1.03,1.61,1.87,3.59,1.87s3.59-.84,3.59-1.87-1.61-1.87-3.59-1.87-3.59,.84-3.59,1.87Z"/><path class="d" d="M25.83,8.53c-8.72,0-15.8,7.05-15.8,15.75v.5c0,8.7,7.07,15.75,15.8,15.75H293.17c8.72,0,15.8-7.05,15.8-15.75v-.5c0-8.7-7.07-15.75-15.8-15.75H25.83Z"/><path class="d" d="M277.79,40.43c0,1.68,2.62,3.05,5.86,3.05s5.86-1.36,5.86-3.05-2.62-3.05-5.86-3.05-5.86,1.37-5.86,3.05Z"/><path class="d" d="M267.95,40.43c0,1.03,1.61,1.87,3.59,1.87s3.59-.84,3.59-1.87-1.61-1.87-3.59-1.87-3.59,.84-3.59,1.87Z"/><polygon class="b" points="212.37 0 259.51 47 267.31 47 220.16 0 212.37 0"/><polygon class="b" points="172.33 0 219.47 47 253.76 47 206.61 0 172.33 0"/><path class="c" d="M25.58,7.51c-8.85,0-16.04,7.17-16.04,15.99s7.2,15.99,16.04,15.99H293.42c8.85,0,16.04-7.17,16.04-15.99s-7.2-15.99-16.04-15.99H25.58Z"/><path class="e" d="M25.74,8.97c-8.12,0-14.71,6.56-14.71,14.66v.71c0,8.1,6.59,14.66,14.71,14.66H293.26c8.12,0,14.71-6.56,14.71-14.66v-.71c0-8.1-6.58-14.66-14.71-14.66H25.74Z"/></g><g/></svg>